<svg width="145" height="36" viewBox="0 0 145 36" fill="none" xmlns="http://www.w3.org/2000/svg">
<path d="M9.224 3.044C10.472 3.044 11.468 3.164 12.212 3.404C12.956 3.644 13.712 3.992 14.48 4.448C14.744 4.592 14.972 4.712 15.164 4.808C15.38 4.904 15.56 4.952 15.704 4.952C15.92 4.952 16.088 4.832 16.208 4.592C16.328 4.328 16.424 3.92 16.496 3.368H17.324C17.204 4.976 17.144 7.712 17.144 11.576H16.316C16.22 10.28 15.92 9.044 15.416 7.868C14.936 6.692 14.24 5.744 13.328 5.024C12.44 4.28 11.396 3.908 10.196 3.908C9.02 3.908 8.06 4.244 7.316 4.916C6.596 5.564 6.236 6.452 6.236 7.58C6.236 8.42 6.416 9.152 6.776 9.776C7.136 10.4 7.64 10.976 8.288 11.504C8.936 12.008 9.932 12.704 11.276 13.592L12.428 14.384C13.844 15.32 14.96 16.136 15.776 16.832C16.592 17.528 17.252 18.344 17.756 19.28C18.284 20.192 18.548 21.26 18.548 22.484C18.548 24.02 18.152 25.316 17.36 26.372C16.568 27.404 15.488 28.184 14.12 28.712C12.776 29.24 11.276 29.504 9.62 29.504C8.276 29.504 7.16 29.384 6.272 29.144C5.384 28.904 4.568 28.58 3.824 28.172C3.296 27.836 2.888 27.668 2.6 27.668C2.384 27.668 2.216 27.8 2.096 28.064C1.976 28.304 1.88 28.7 1.808 29.252H0.98C1.076 27.74 1.124 24.5 1.124 19.532H1.952C2.12 22.22 2.72 24.404 3.752 26.084C4.784 27.74 6.368 28.568 8.504 28.568C9.8 28.568 10.868 28.22 11.708 27.524C12.548 26.828 12.968 25.832 12.968 24.536C12.968 23.192 12.536 22.04 11.672 21.08C10.808 20.12 9.44 19.04 7.568 17.84C6.128 16.904 4.976 16.088 4.112 15.392C3.248 14.696 2.54 13.88 1.988 12.944C1.436 11.984 1.16 10.88 1.16 9.632C1.16 8.192 1.52 6.98 2.24 5.996C2.984 4.988 3.968 4.244 5.192 3.764C6.416 3.284 7.76 3.044 9.224 3.044ZM25.6394 29.252C24.1034 29.252 22.9514 28.856 22.1834 28.064C21.4394 27.272 21.0674 26.228 21.0674 24.932C21.0674 23.852 21.3434 22.964 21.8954 22.268C22.4714 21.548 23.1554 20.996 23.9474 20.612C24.7634 20.228 25.7954 19.82 27.0434 19.388C28.3634 18.932 29.3234 18.524 29.9234 18.164C30.5474 17.78 30.8594 17.264 30.8594 16.616V13.808C30.8594 12.8 30.6194 12.02 30.1394 11.468C29.6834 10.892 28.9634 10.604 27.9794 10.604C26.8274 10.604 25.9514 10.892 25.3514 11.468C26.0234 11.708 26.5394 12.068 26.8994 12.548C27.2834 13.028 27.4754 13.592 27.4754 14.24C27.4754 15.056 27.1994 15.704 26.6474 16.184C26.0954 16.664 25.4234 16.904 24.6314 16.904C23.7914 16.904 23.1434 16.64 22.6874 16.112C22.2314 15.584 22.0034 14.924 22.0034 14.132C22.0034 13.46 22.1594 12.896 22.4714 12.44C22.8074 11.96 23.3114 11.516 23.9834 11.108C24.6314 10.724 25.4234 10.424 26.3594 10.208C27.3194 9.992 28.3634 9.884 29.4914 9.884C30.6674 9.884 31.6874 10.004 32.5514 10.244C33.4154 10.484 34.1354 10.892 34.7114 11.468C35.2394 11.996 35.5874 12.644 35.7554 13.412C35.9474 14.18 36.0434 15.224 36.0434 16.544V26.336C36.0434 26.912 36.0914 27.32 36.1874 27.56C36.3074 27.8 36.5234 27.92 36.8354 27.92C37.1954 27.92 37.6274 27.716 38.1314 27.308L38.4914 27.92C37.4114 28.808 36.0914 29.252 34.5314 29.252C33.2114 29.252 32.2874 28.988 31.7594 28.46C31.2314 27.932 30.9554 27.224 30.9314 26.336C29.7314 28.28 27.9674 29.252 25.6394 29.252ZM28.4114 26.948C29.3474 26.948 30.1634 26.456 30.8594 25.472V18.092C30.5714 18.572 29.9594 19.1 29.0234 19.676C28.0874 20.276 27.3794 20.876 26.8994 21.476C26.4194 22.076 26.1794 22.94 26.1794 24.068C26.1794 25.052 26.3834 25.784 26.7914 26.264C27.1994 26.72 27.7394 26.948 28.4114 26.948ZM52.4443 9.884C53.6923 9.884 54.7963 10.22 55.7563 10.892C56.7403 11.564 57.5083 12.572 58.0603 13.916C58.6123 15.26 58.8883 16.904 58.8883 18.848C58.8883 22.28 58.1323 24.92 56.6203 26.768C55.1323 28.592 53.1043 29.504 50.5363 29.504C49.8163 29.504 49.1323 29.408 48.4843 29.216C47.8603 29.024 47.3203 28.736 46.8643 28.352V31.952C46.8643 33.008 47.1283 33.74 47.6562 34.148C48.1843 34.556 49.0003 34.76 50.1043 34.76V35.516L49.1323 35.48C46.4683 35.408 44.7763 35.372 44.0563 35.372C43.3363 35.372 41.8243 35.42 39.5203 35.516V34.76C40.3123 34.76 40.8643 34.58 41.1763 34.22C41.5123 33.884 41.6803 33.248 41.6803 32.312V14.312C41.6803 13.208 41.5003 12.404 41.1403 11.9C40.8043 11.396 40.2163 11.144 39.3763 11.144V10.388C40.1443 10.46 40.8883 10.496 41.6083 10.496C43.6963 10.496 45.4483 10.328 46.8643 9.992V13.304C47.3683 12.2 48.1003 11.36 49.0603 10.784C50.0203 10.184 51.1483 9.884 52.4443 9.884ZM49.1323 28.532C50.6683 28.532 51.7723 27.776 52.4443 26.264C53.1163 24.728 53.4523 22.496 53.4523 19.568C53.4523 16.64 53.1763 14.552 52.6243 13.304C52.0963 12.056 51.3283 11.432 50.3203 11.432C49.5043 11.432 48.7723 11.708 48.1243 12.26C47.5003 12.812 47.0803 13.58 46.8643 14.564V27.56C47.4403 28.208 48.1963 28.532 49.1323 28.532ZM65.8582 29.252C64.3222 29.252 63.1702 28.856 62.4022 28.064C61.6582 27.272 61.2862 26.228 61.2862 24.932C61.2862 23.852 61.5622 22.964 62.1142 22.268C62.6902 21.548 63.3742 20.996 64.1662 20.612C64.9822 20.228 66.0142 19.82 67.2622 19.388C68.5822 18.932 69.5422 18.524 70.1422 18.164C70.7662 17.78 71.0782 17.264 71.0782 16.616V13.808C71.0782 12.8 70.8382 12.02 70.3582 11.468C69.9022 10.892 69.1822 10.604 68.1982 10.604C67.0462 10.604 66.1702 10.892 65.5702 11.468C66.2422 11.708 66.7582 12.068 67.1182 12.548C67.5022 13.028 67.6942 13.592 67.6942 14.24C67.6942 15.056 67.4182 15.704 66.8662 16.184C66.3142 16.664 65.6422 16.904 64.8502 16.904C64.0102 16.904 63.3622 16.64 62.9062 16.112C62.4502 15.584 62.2222 14.924 62.2222 14.132C62.2222 13.46 62.3782 12.896 62.6902 12.44C63.0262 11.96 63.5302 11.516 64.2022 11.108C64.8502 10.724 65.6422 10.424 66.5782 10.208C67.5382 9.992 68.5822 9.884 69.7102 9.884C70.8862 9.884 71.9062 10.004 72.7702 10.244C73.6342 10.484 74.3542 10.892 74.9302 11.468C75.4582 11.996 75.8062 12.644 75.9742 13.412C76.1662 14.18 76.2622 15.224 76.2622 16.544V26.336C76.2622 26.912 76.3102 27.32 76.4062 27.56C76.5262 27.8 76.7422 27.92 77.0542 27.92C77.4142 27.92 77.8462 27.716 78.3502 27.308L78.7102 27.92C77.6302 28.808 76.3102 29.252 74.7502 29.252C73.4302 29.252 72.5062 28.988 71.9782 28.46C71.4502 27.932 71.1742 27.224 71.1502 26.336C69.9502 28.28 68.1862 29.252 65.8582 29.252ZM68.6302 26.948C69.5662 26.948 70.3822 26.456 71.0782 25.472V18.092C70.7902 18.572 70.1782 19.1 69.2422 19.676C68.3062 20.276 67.5982 20.876 67.1182 21.476C66.6382 22.076 66.3982 22.94 66.3982 24.068C66.3982 25.052 66.6022 25.784 67.0102 26.264C67.4182 26.72 67.9582 26.948 68.6302 26.948ZM92.123 9.884C93.203 9.884 94.019 10.208 94.571 10.856C95.123 11.504 95.399 12.284 95.399 13.196C95.399 14.084 95.135 14.816 94.607 15.392C94.103 15.944 93.431 16.22 92.591 16.22C91.775 16.22 91.127 16.016 90.647 15.608C90.167 15.176 89.927 14.612 89.927 13.916C89.927 12.764 90.455 11.828 91.511 11.108C91.415 11.084 91.271 11.072 91.079 11.072C90.839 11.072 90.647 11.096 90.503 11.144C89.591 11.288 88.811 11.84 88.163 12.8C87.539 13.76 87.227 14.744 87.227 15.752V25.292C87.227 26.396 87.491 27.164 88.019 27.596C88.571 28.028 89.435 28.244 90.611 28.244V29C90.275 29 89.999 28.988 89.783 28.964C87.335 28.892 85.703 28.856 84.887 28.856C84.239 28.856 82.763 28.892 80.459 28.964C80.267 28.988 80.027 29 79.739 29V28.244C80.603 28.244 81.203 28.064 81.539 27.704C81.875 27.32 82.043 26.636 82.043 25.652V14.312C82.043 13.208 81.875 12.404 81.539 11.9C81.203 11.396 80.603 11.144 79.739 11.144V10.388C80.507 10.46 81.251 10.496 81.971 10.496C84.107 10.496 85.859 10.328 87.227 9.992V13.34C87.683 12.308 88.343 11.48 89.207 10.856C90.071 10.208 91.043 9.884 92.123 9.884ZM99.1334 23.96C100.069 23.96 100.813 24.212 101.365 24.716C101.917 25.196 102.193 25.868 102.193 26.732C102.193 27.596 101.917 28.28 101.365 28.784C100.813 29.264 100.069 29.504 99.1334 29.504C98.1974 29.504 97.4534 29.264 96.9014 28.784C96.3494 28.28 96.0734 27.596 96.0734 26.732C96.0734 25.868 96.3494 25.196 96.9014 24.716C97.4534 24.212 98.1974 23.96 99.1334 23.96ZM123.129 26.372C123.513 26.948 123.825 27.38 124.065 27.668C124.305 27.932 124.617 28.124 125.001 28.244V29C123.081 28.904 121.821 28.856 121.221 28.856C120.429 28.856 118.881 28.904 116.577 29V28.244C116.913 28.244 117.177 28.184 117.369 28.064C117.561 27.944 117.657 27.776 117.657 27.56C117.657 27.44 117.597 27.26 117.477 27.02L113.913 20.576C113.673 20.168 113.421 19.892 113.157 19.748C112.893 19.604 112.557 19.508 112.149 19.46V25.652C112.149 26.636 112.305 27.32 112.617 27.704C112.929 28.064 113.493 28.244 114.309 28.244V29C111.909 28.904 110.349 28.856 109.629 28.856C108.813 28.856 107.157 28.904 104.661 29V28.244C105.501 28.244 106.089 28.064 106.425 27.704C106.785 27.32 106.965 26.636 106.965 25.652V5.132C106.965 4.028 106.785 3.224 106.425 2.72C106.089 2.216 105.501 1.964 104.661 1.964V1.208C105.429 1.28 106.173 1.316 106.893 1.316C108.981 1.316 110.733 1.148 112.149 0.811998V18.776C112.629 18.728 113.037 18.632 113.373 18.488C113.733 18.344 114.045 18.128 114.309 17.84L117.045 15.176C117.837 14.384 118.233 13.652 118.233 12.98C118.233 12.428 117.981 11.996 117.477 11.684C116.973 11.348 116.301 11.156 115.461 11.108V10.388C116.781 10.46 118.185 10.496 119.673 10.496C121.665 10.496 123.069 10.46 123.885 10.388V11.108C122.469 11.42 120.969 12.344 119.385 13.88L117.081 16.256L123.129 26.372ZM142.963 13.844C142.483 13.844 142.075 13.688 141.739 13.376C141.403 13.04 141.235 12.572 141.235 11.972C141.235 11.396 141.379 10.808 141.667 10.208C141.091 10.448 140.611 10.724 140.227 11.036C139.867 11.324 139.555 11.696 139.291 12.152C140.035 13.04 140.407 14.192 140.407 15.608C140.407 17.504 139.747 18.932 138.427 19.892C137.131 20.852 135.403 21.332 133.243 21.332H132.595C131.611 21.908 131.119 22.544 131.119 23.24C131.119 24.008 131.599 24.392 132.559 24.392H136.483C138.595 24.392 140.275 24.788 141.523 25.58C142.795 26.348 143.431 27.536 143.431 29.144C143.431 30.368 143.035 31.472 142.243 32.456C141.475 33.464 140.299 34.268 138.715 34.868C137.131 35.468 135.187 35.768 132.883 35.768C130.555 35.768 128.683 35.468 127.267 34.868C125.875 34.292 125.179 33.452 125.179 32.348C125.179 31.604 125.515 30.932 126.187 30.332C126.859 29.756 127.855 29.3 129.175 28.964L129.499 29.54C128.635 30.26 128.203 31.088 128.203 32.024C128.203 33.032 128.659 33.8 129.571 34.328C130.483 34.88 131.743 35.156 133.351 35.156C135.031 35.156 136.387 34.82 137.419 34.148C138.475 33.476 139.003 32.528 139.003 31.304C139.003 30.512 138.703 29.888 138.103 29.432C137.527 28.976 136.507 28.748 135.043 28.748H132.811C131.275 28.748 130.075 28.496 129.211 27.992C128.347 27.464 127.915 26.672 127.915 25.616C127.915 24.728 128.227 23.936 128.851 23.24C129.475 22.544 130.423 21.872 131.695 21.224C129.967 21.008 128.599 20.432 127.591 19.496C126.583 18.56 126.079 17.264 126.079 15.608C126.079 13.712 126.727 12.284 128.023 11.324C129.343 10.364 131.083 9.884 133.243 9.884C135.643 9.884 137.479 10.448 138.751 11.576C139.207 10.928 139.771 10.412 140.443 10.028C141.115 9.644 141.799 9.452 142.495 9.452C143.215 9.452 143.779 9.668 144.187 10.1C144.619 10.508 144.835 11.048 144.835 11.72C144.835 12.392 144.643 12.92 144.259 13.304C143.899 13.664 143.467 13.844 142.963 13.844ZM133.243 20.684C133.915 20.684 134.419 20.3 134.755 19.532C135.115 18.764 135.295 17.456 135.295 15.608C135.295 13.76 135.115 12.452 134.755 11.684C134.419 10.916 133.915 10.532 133.243 10.532C132.571 10.532 132.055 10.916 131.695 11.684C131.359 12.452 131.191 13.76 131.191 15.608C131.191 17.456 131.359 18.764 131.695 19.532C132.055 20.3 132.571 20.684 133.243 20.684Z" fill="black"/>
</svg>
